<?xml version="1.0" encoding="UTF-8" standalone="no" ?>
<!DOCTYPE svg PUBLIC "-//W3C//DTD SVG 1.1//EN" "http://www.w3.org/Graphics/SVG/1.1/DTD/svg11.dtd">
<svg xmlns="http://www.w3.org/2000/svg" xmlns:xlink="http://www.w3.org/1999/xlink" version="1.1" width="1080" height="1080" viewBox="0 0 1080 1080" xml:space="preserve">
<desc>Created with Fabric.js 5.2.4</desc>
<defs>
</defs>
<rect x="0" y="0" width="100%" height="100%" fill="transparent"></rect>
<g transform="matrix(1 0 0 1 540 540)" id="6d30c7bc-47fe-4f37-99cc-ea0b16f7a1e6"  >
</g>
<g transform="matrix(1 0 0 1 540 540)" id="aad9df9e-3320-409f-b432-6787c07976f3"  >
<rect style="stroke: none; stroke-width: 1; stroke-dasharray: none; stroke-linecap: butt; stroke-dashoffset: 0; stroke-linejoin: miter; stroke-miterlimit: 4; fill: rgb(70,130,180); fill-rule: nonzero; opacity: 1;" vector-effect="non-scaling-stroke"  x="-540" y="-540" rx="0" ry="0" width="1080" height="1080" />
</g>
<g transform="matrix(1 0 0 1 540 540)"  >
<rect style="stroke: none; stroke-width: 1; stroke-dasharray: none; stroke-linecap: butt; stroke-dashoffset: 0; stroke-linejoin: miter; stroke-miterlimit: 4; fill: rgb(255,255,255); fill-rule: nonzero; opacity: 1; visibility: hidden;" vector-effect="non-scaling-stroke"  x="-540" y="-540" rx="0" ry="0" width="1080" height="1080" />
</g>
<g transform="matrix(1.69 0 0 1.69 540 540)"  >
<path style="stroke: rgb(255,255,255); stroke-width: 50; stroke-dasharray: none; stroke-linecap: round; stroke-dashoffset: 0; stroke-linejoin: round; stroke-miterlimit: 4; fill: none; fill-rule: nonzero; opacity: 1;" vector-effect="non-scaling-stroke"  transform=" translate(-256.01, -256)" d="M 255.66 112 C 177.72 112 97.77000000000001 157.11 34.829999999999984 247.33 C 31.156133961436893 252.6541501700191 31.049584385250956 259.66669079529356 34.55999999999998 265.1 C 82.92 340.8 161.8 400 255.66 400 C 348.5 400 429 340.62 477.45 264.75 C 480.87399061794133 259.42997426906004 480.87399061794133 252.60002573093993 477.45 247.28 C 428.89 172.28 347.8 112 255.66 112 Z" stroke-linecap="round" />
</g>
<g transform="matrix(1.19 0 0 1.19 538.86 539.83)"  >
<path style="stroke: rgb(255,255,255); stroke-width: 50; stroke-dasharray: none; stroke-linecap: butt; stroke-dashoffset: 0; stroke-linejoin: miter; stroke-miterlimit: 10; fill: none; fill-rule: nonzero; opacity: 1;" vector-effect="non-scaling-stroke"  transform=" translate(-256, -259.96)" d="M 400 320 C 400 408.37 344.37 464 256 464 C 167.63 464 112 408.37 112 320 C 112 225.17000000000002 215.23000000000002 97.15 246.89 60.120000000000005 C 249.16981957763954 57.45750561748816 252.49979620514074 55.92491992271541 256.005 55.92491992271541 C 259.51020379485925 55.92491992271541 262.84018042236045 57.45750561748816 265.12 60.120000000000005 C 296.77 97.15 400 225.17 400 320 Z" stroke-linecap="round" />
</g>
<g transform="matrix(0 0 0 0 145.83 113.99)"  >
<g style=""   >
</g>
</g>
</svg>